# File created by Blade
# Date/Time:  Tue Apr 07 20:35:22 2015
#---------------------------------------------------------
:version 1.10
:name HOM
:units
  mass 1.0
  length 1.000000
  angle deg
:documentation
     Acclaim Skeleton File
:root
   axis xyz
   order TX TY TZ RX RY RZ
   position 0.000000 0.000000 0.000000
   orientation 0 0 0
:bonedata
   begin
      id 1
      name Spine_dum
      direction 0.000000 1.000000 0.000000
      length 4.885285
      axis 0.0 0.0 0.0 xyz
   end
   begin
      id 2
      name LeftUpLeg_dum
      direction 1.000000 0.000000 0.000000
      length 2.672193
      axis 0.0 0.0 0.0 xyz
   end
   begin
      id 3
      name RightUpLeg_dum
      direction -1.000000 0.000000 0.000000
      length 2.672193
      axis 0.0 0.0 0.0 xyz
   end
   begin
      id 4
      name Spine
      direction 0.000000 1.000000 0.000000
      length 0.000000
      axis 0.0 0.0 0.0 xyz
      dof rx ry rz
   end
   begin
      id 5
      name Spine_dum1
      direction 0.000000 1.000000 0.000000
      length 16.494159
      axis 0.0 0.0 0.0 xyz
   end
   begin
      id 6
      name Spine_dum2
      direction 0.000000 1.000000 0.000000
      length 10.663448
      axis 0.0 0.0 0.0 xyz
   end
   begin
      id 7
      name Spine_dum3
      direction 0.000000 1.000000 0.000000
      length 10.663448
      axis 0.0 0.0 0.0 xyz
   end
   begin
      id 8
      name Head
      direction 0.000000 1.000000 0.000000
      length 4.527550
      axis 0.0 0.0 0.0 xyz
      dof rx ry rz
   end
   begin
      id 9
      name LeftShoulder
      direction 1.000000 0.000000 0.000000
      length 7.531907
      axis 0.0 0.0 -90.0 xyz
      dof rx ry rz
   end
   begin
      id 10
      name LeftArm
      direction 1.000000 0.000000 0.000000
      length 10.229199
      axis 0.0 0.0 -90.0 xyz
      dof rx ry rz
   end
   begin
      id 11
      name LeftForeArm
      direction 1.000000 0.000000 0.000000
      length 8.673495
      axis 0.0 0.0 -90.0 xyz
      dof ry rz rx
   end
   begin
      id 12
      name LeftHand
      direction 0.000000 0.000000 0.000000
      length 0.000000
      axis 0.0 0.0 -90.0 xyz
      dof rx ry rz
   end
   begin
      id 13
      name LeftHand_dum1
      direction 0.000000 0.000000 0.000000
      length 0.000000
      axis 0.0 0.0 -90.0 xyz
   end
   begin
      id 14
      name LeftHand_dum2
      direction 1.000000 0.000000 0.000000
      length 3.937000
      axis 0.0 0.0 -90.0 xyz
   end
   begin
      id 15
      name LeftHandThumb1
      direction 0.000000 0.000000 1.000000
      length 3.937000
      axis 0.0 0.0 -90.0 xyz
      dof rx rz ry
   end
   begin
      id 16
      name RightShoulder
      direction -1.000000 0.000000 0.000000
      length 7.531907
      axis 0.0 0.0 90.0 xyz
      dof rx ry rz
   end
   begin
      id 17
      name RightArm
      direction -1.000000 0.000000 0.000000
      length 10.229199
      axis 0.0 0.0 90.0 xyz
      dof rx ry rz
   end
   begin
      id 18
      name RightForeArm
      direction -1.000000 0.000000 0.000000
      length 8.673495
      axis 0.0 0.0 90.0 xyz
      dof ry rz rx
   end
   begin
      id 19
      name RightHand
      direction 0.000000 0.000000 0.000000
      length 0.000000
      axis 0.0 0.0 90.0 xyz
      dof rx ry rz
   end
   begin
      id 20
      name RightHand_dum1
      direction 0.000000 0.000000 0.000000
      length 0.000000
      axis 0.0 0.0 90.0 xyz
   end
   begin
      id 21
      name RightHand_dum2
      direction -1.000000 0.000000 0.000000
      length 3.937000
      axis 0.0 0.0 90.0 xyz
   end
   begin
      id 22
      name RightHandThumb1
      direction 0.000000 0.000000 1.000000
      length 3.937000
      axis 0.0 0.0 90.0 xyz
      dof rx rz ry
   end
   begin
      id 23
      name LeftUpLeg
      direction 0.000000 -1.000000 0.000000
      length 16.263388
      axis 0.0 0.0 0.0 xyz
      dof rx ry rz
   end
   begin
      id 24
      name LeftLeg
      direction 0.000000 -1.000000 0.000000
      length 14.328163
      axis 0.0 0.0 0.0 xyz
      dof rx ry rz
   end
   begin
      id 25
      name LeftFoot
      direction 0.000000 -0.258819 0.965926
      length 5.031290
      axis 15.0 0.0 0.0 xyz
      dof rx ry rz
   end
   begin
      id 26
      name LeftToeBase
      direction 0.000000 0.000000 1.000000
      length 2.952750
      axis 0.0 0.0 0.0 xyz
      dof rx ry rz
   end
   begin
      id 27
      name RightUpLeg
      direction 0.000000 -1.000000 0.000000
      length 16.263388
      axis 0.0 0.0 0.0 xyz
      dof rx ry rz
   end
   begin
      id 28
      name RightLeg
      direction 0.000000 -1.000000 0.000000
      length 14.328163
      axis 0.0 0.0 0.0 xyz
      dof rx ry rz
   end
   begin
      id 29
      name RightFoot
      direction 0.000000 -0.258819 0.965926
      length 5.031290
      axis 15.0 0.0 0.0 xyz
      dof rx ry rz
   end
   begin
      id 30
      name RightToeBase
      direction 0.000000 0.000000 1.000000
      length 2.952750
      axis 0.0 0.0 0.0 xyz
      dof rx ry rz
   end
:hierarchy
   begin
      root Spine_dum LeftUpLeg_dum RightUpLeg_dum
      Spine_dum Spine
      LeftUpLeg_dum LeftUpLeg
      RightUpLeg_dum RightUpLeg
      Spine Spine_dum1 Spine_dum2 Spine_dum3
      Spine_dum1 Head
      Spine_dum2 LeftShoulder
      Spine_dum3 RightShoulder
      LeftShoulder LeftArm
      LeftArm LeftForeArm
      LeftForeArm LeftHand
      LeftHand LeftHand_dum1 LeftHand_dum2
      LeftHand_dum1 LeftHandThumb1
      RightShoulder RightArm
      RightArm RightForeArm
      RightForeArm RightHand
      RightHand RightHand_dum1 RightHand_dum2
      RightHand_dum1 RightHandThumb1
      LeftUpLeg LeftLeg
      LeftLeg LeftFoot
      LeftFoot LeftToeBase
      RightUpLeg RightLeg
      RightLeg RightFoot
      RightFoot RightToeBase
   end

# File created by Blade
# Date/Time:  Tue Apr 07 20:35:32 2015
# Frame Rate: 120.000 fps
#------------------------------------------------------
:FULLY-SPECIFIED
:DEGREES
232
root 2.220576 32.696530 -2.402026 8.666232 -26.664107 -6.899336
Spine -3.432379 13.404044 -1.003166
Head 11.257029 -1.993257 4.645772
LeftShoulder -22.358269 45.081591 9.581755
LeftArm 47.308206 -22.218823 -89.259474
LeftForeArm 6.045148 -0.000000 20.924790
LeftHand 9.683844 -0.000000 1.841236
LeftHandThumb1 -26.253704 0.000000 33.147579
RightShoulder 2.199331 4.529106 -19.479649
RightArm 23.958830 -10.832381 87.282116
RightForeArm -1.941158 -0.000000 21.994627
RightHand 7.632373 0.000000 0.684721
RightHandThumb1 -24.326973 -0.000000 -32.862282
LeftUpLeg -7.679488 6.383189 -2.134039
LeftLeg 6.367908 -0.000000 -0.000000
LeftFoot -12.592867 21.381720 -7.336535
LeftToeBase -8.456384 -0.000000 0.000000
RightUpLeg -62.798249 -49.634993 4.889904
RightLeg 76.740468 -0.000000 -0.000000
RightFoot 20.064017 -18.615685 12.829402
RightToeBase 20.010881 -0.000000 -0.000000
233
root 2.247061 32.693075 -2.364372 8.617966 -26.978659 -6.956670
Spine -3.387150 13.729100 -0.825424
Head 11.323755 -1.946189 4.379172
LeftShoulder -22.602530 45.238809 9.245961
LeftArm 47.242631 -22.809198 -89.148779
LeftForeArm 6.247832 -0.000000 20.850318
LeftHand 9.664883 0.000000 1.686084
LeftHandThumb1 -26.253704 0.000000 33.147579
RightShoulder 2.369130 4.637986 -19.579168
RightArm 24.167700 -11.089559 87.290181
RightForeArm -1.905567 -0.000000 21.828025
RightHand 7.602640 -0.000000 0.852237
RightHandThumb1 -24.326973 -0.000000 -32.862282
LeftUpLeg -7.634734 6.284149 -2.168438
LeftLeg 6.552395 -0.000000 -0.000000
LeftFoot -12.732151 21.764435 -7.275227
LeftToeBase -8.484194 -0.000000 0.000000
RightUpLeg -63.874425 -50.589802 5.149140
RightLeg 77.429638 -0.000000 -0.000000
RightFoot 20.138053 -19.377501 12.288026
RightToeBase 18.889782 -0.000000 -0.000000
234
root 2.255228 32.694846 -2.347865 8.696965 -27.531368 -7.115274
Spine -3.414888 14.311783 -0.714601
Head 11.358320 -1.930430 4.271335
LeftShoulder -22.857856 45.389294 9.007829
LeftArm 47.447707 -23.627547 -89.359545
LeftForeArm 6.756258 -0.000000 20.517382
LeftHand 9.706215 -0.000000 1.565223
LeftHandThumb1 -26.253704 0.000000 33.147579
RightShoulder 2.533185 4.764579 -19.591341
RightArm 24.381641 -11.329149 87.312864
RightForeArm -1.849868 0.000000 21.667650
RightHand 7.681531 -0.000000 0.873165
RightHandThumb1 -24.326973 -0.000000 -32.862282
LeftUpLeg -7.687951 6.514487 -2.105750
LeftLeg 6.751287 -0.000000 -0.000000
LeftFoot -12.817624 22.013119 -7.179528
LeftToeBase -8.711228 -0.000000 0.000000
RightUpLeg -65.090853 -51.163461 5.624590
RightLeg 78.115527 -0.000000 -0.000000
RightFoot 20.112062 -20.233160 12.041336
RightToeBase 19.600923 -0.000000 -0.000000
235
root 2.267239 32.696370 -2.328922 8.765980 -27.965888 -7.293791
Spine -3.406742 14.781694 -0.522765
Head 11.391876 -1.905191 4.101986
LeftShoulder -23.113081 45.515269 8.734826
LeftArm 47.473335 -24.329889 -89.337772
LeftForeArm 6.950183 -0.000000 20.324856
LeftHand 9.708544 -0.000000 1.564046
LeftHandThumb1 -26.253704 0.000000 33.147579
RightShoulder 2.690202 4.899755 -19.641189
RightArm 24.582178 -11.653164 87.284196
RightForeArm -1.857882 -0.000000 21.535302
RightHand 7.577792 -0.000000 0.679056
RightHandThumb1 -24.326973 -0.000000 -32.862282
LeftUpLeg -7.744390 6.633283 -2.028096
LeftLeg 6.990928 -0.000000 -0.000000
LeftFoot -12.925079 22.318223 -6.983244
LeftToeBase -7.924269 -0.000000 0.000000
RightUpLeg -66.288897 -51.869616 6.124580
RightLeg 78.752093 -0.000000 -0.000000
RightFoot 20.265311 -20.962054 11.766325
RightToeBase 19.416698 -0.000000 -0.000000
236
root 2.280735 32.698370 -2.305390 8.800871 -28.327475 -7.461172
Spine -3.360034 15.158278 -0.303559
Head 11.428714 -1.872180 3.908688
LeftShoulder -23.396545 45.625277 8.458834
LeftArm 47.408565 -24.988441 -89.239773
LeftForeArm 6.881128 0.000000 20.186009
LeftHand 9.587175 0.000000 1.298013
LeftHandThumb1 -26.253704 0.000000 33.147579
RightShoulder 2.857766 5.016271 -19.709770
RightArm 24.781781 -11.851607 87.298252
RightForeArm -1.867810 -0.000000 21.409793
RightHand 7.609041 0.000000 0.823924
RightHandThumb1 -24.326973 -0.000000 -32.862282
LeftUpLeg -7.717122 6.579638 -1.947244
LeftLeg 7.124386 -0.000000 -0.000000
LeftFoot -12.973684 22.723623 -6.860839
LeftToeBase -8.083969 -0.000000 0.000000
RightUpLeg -67.400778 -52.610650 6.556685
RightLeg 79.372168 -0.000000 -0.000000
RightFoot 20.434117 -21.604118 11.644968
RightToeBase 19.474087 -0.000000 -0.000000
237
root 2.294506 32.701694 -2.282612 8.868946 -28.675989 -7.651833
Spine -3.337191 15.544863 -0.063424
Head 11.479164 -1.844357 3.706000
LeftShoulder -23.651319 45.736886 8.190062
LeftArm 47.384064 -25.736328 -89.221097
LeftForeArm 6.951144 -0.000000 20.032772
LeftHand 9.454739 -0.000000 1.418973
LeftHandThumb1 -26.253704 0.000000 33.147579
RightShoulder 3.007105 5.118888 -19.788102
RightArm 24.969462 -12.049225 87.298357
RightForeArm -1.820913 0.000000 21.302001
RightHand 7.627043 -0.000000 0.922563
RightHandThumb1 -24.326973 -0.000000 -32.862282
LeftUpLeg -7.731831 6.530388 -1.851079
LeftLeg 7.295909 -0.000000 -0.000000
LeftFoot -13.038051 23.132264 -6.740899
LeftToeBase -8.151753 -0.000000 0.000000
RightUpLeg -68.536768 -53.338581 7.045512
RightLeg 79.977749 -0.000000 -0.000000
RightFoot 20.526215 -22.130748 11.655922
RightToeBase 19.675943 -0.000000 -0.000000
238
root 2.302289 32.707023 -2.253658 8.933741 -29.182287 -7.838025
Spine -3.343342 16.079734 0.119295
Head 11.569799 -1.824346 3.555510
LeftShoulder -23.899616 45.828023 7.951920
LeftArm 47.288218 -26.499304 -89.117647
LeftForeArm 6.861240 -0.000000 19.905278
LeftHand 9.396427 -0.000000 1.617194
LeftHandThumb1 -26.253704 0.000000 33.147579
RightShoulder 3.153039 5.174315 -19.822184
RightArm 25.161259 -12.231443 87.302257
RightForeArm -1.762557 -0.000000 21.225911
RightHand 7.669171 -0.000000 1.047375
RightHandThumb1 -24.326973 -0.000000 -32.862282
LeftUpLeg -7.712885 6.750334 -1.781795
LeftLeg 7.450016 -0.000000 -0.000000
LeftFoot -13.141283 23.393041 -6.689923
LeftToeBase -8.493701 -0.000000 0.000000
RightUpLeg -69.651659 -53.895957 7.518428
RightLeg 80.571494 -0.000000 -0.000000
RightFoot 20.635570 -22.595703 11.687577
RightToeBase 19.751832 -0.000000 -0.000000
239
root 2.314170 32.713749 -2.223369 8.987584 -29.506103 -8.040352
Spine -3.312562 16.438885 0.385327
Head 11.655397 -1.796236 3.354446
LeftShoulder -24.173182 45.943940 7.673209
LeftArm 47.230244 -27.285696 -89.062390
LeftForeArm 6.630231 -0.000000 19.805845
LeftHand 9.318901 -0.000000 1.415328
LeftHandThumb1 -26.253704 0.000000 33.147579
RightShoulder 3.293411 5.231501 -19.889887
RightArm 25.343422 -12.425977 87.282364
RightForeArm -1.708803 0.000000 21.160489
RightHand 7.657425 0.000000 1.060575
RightHandThumb1 -24.326973 -0.000000 -32.862282
LeftUpLeg -7.653177 6.716181 -1.681097
LeftLeg 7.532391 -0.000000 -0.000000
LeftFoot -13.137509 23.780491 -6.544316
LeftToeBase -8.569351 -0.000000 0.000000
RightUpLeg -70.748075 -54.629583 8.039993
RightLeg 81.114424 -0.000000 -0.000000
RightFoot 20.807073 -22.931243 11.562187
RightToeBase 19.791799 -0.000000 -0.000000
240
root 2.322309 32.721812 -2.200087 9.105870 -29.919125 -8.257251
Spine -3.340547 16.902923 0.595848
Head 11.727910 -1.789558 3.225018
LeftShoulder -24.403107 46.041530 7.468689
LeftArm 47.159655 -28.089971 -88.989074
LeftForeArm 6.508138 -0.000000 19.727948
LeftHand 9.109708 -0.000000 1.340159
LeftHandThumb1 -26.253704 0.000000 33.147579
RightShoulder 3.416630 5.287086 -19.928515
RightArm 25.514500 -12.619262 87.258565
RightForeArm -1.658309 -0.000000 21.115111
RightHand 7.632737 -0.000000 1.120664
RightHandThumb1 -24.326973 -0.000000 -32.862282
LeftUpLeg -7.667670 6.820283 -1.571768
LeftLeg 7.650463 -0.000000 -0.000000
LeftFoot -13.118859 24.057080 -6.453515
LeftToeBase -8.956692 -0.000000 0.000000
RightUpLeg -71.915233 -55.195764 8.635011
RightLeg 81.642269 -0.000000 -0.000000
RightFoot 20.987567 -23.253988 11.414929
RightToeBase 19.921355 -0.000000 -0.000000
241
root 2.328651 32.730490 -2.175072 9.222099 -30.362254 -8.480705
Spine -3.368359 17.379808 0.800029
Head 11.815587 -1.750799 3.117249
LeftShoulder -24.682446 46.195760 7.240364
LeftArm 47.222289 -28.892292 -89.008288
LeftForeArm 6.346863 -0.000000 19.528084
LeftHand 9.209495 -0.000000 1.616206
LeftHandThumb1 -26.253704 0.000000 33.147579
RightShoulder 3.526025 5.354411 -19.948797
RightArm 25.693855 -12.822749 87.226373
RightForeArm -1.618335 0.000000 21.027209
RightHand 7.655530 -0.000000 1.121686
RightHandThumb1 -24.326973 -0.000000 -32.862282
LeftUpLeg -7.670273 6.951663 -1.455255
LeftLeg 7.786114 -0.000000 -0.000000
LeftFoot -13.153820 24.321586 -6.395964
LeftToeBase -9.032017 -0.000000 0.000000
RightUpLeg -73.020976 -55.692277 9.189510
RightLeg 82.149172 -0.000000 -0.000000
RightFoot 21.225613 -23.449639 11.086867
RightToeBase 20.050157 -0.000000 -0.000000
242
root 2.329907 32.741106 -2.154320 9.390621 -30.839413 -8.768082
Spine -3.412455 17.898913 1.038502
Head 11.914304 -1.697138 3.018813
LeftShoulder -24.901915 46.297924 7.063089
LeftArm 47.226570 -29.753842 -89.016350
LeftForeArm 6.233538 0.000000 19.384199
LeftHand 9.140906 -0.000000 1.911680
LeftHandThumb1 -26.253704 0.000000 33.147579
RightShoulder 3.633382 5.443902 -19.958707
RightArm 25.839929 -13.010948 87.202019
RightForeArm -1.585960 -0.000000 20.951017
RightHand 7.586059 -0.000000 1.056558
RightHandThumb1 -24.326973 -0.000000 -32.862282
LeftUpLeg -7.660122 7.191715 -1.291696
LeftLeg 7.840237 -0.000000 -0.000000
LeftFoot -13.072776 24.578260 -6.196602
LeftToeBase -9.500044 -0.000000 0.000000
RightUpLeg -74.102672 -56.085549 9.805451
RightLeg 82.606326 -0.000000 -0.000000
RightFoot 21.477249 -23.726834 10.716772
RightToeBase 20.331401 -0.000000 -0.000000
243
root 2.331883 32.751271 -2.135496 9.568221 -31.316387 -9.037747
Spine -3.462358 18.423091 1.241949
Head 11.983536 -1.648530 2.951158
LeftShoulder -25.011341 46.307206 6.981905
LeftArm 46.514538 -30.179392 -88.202673
LeftForeArm 5.487102 -0.000000 19.708625
LeftHand 8.758500 -0.000000 2.565454
LeftHandThumb1 -26.253704 0.000000 33.147579
RightShoulder 3.711363 5.522175 -19.966967
RightArm 25.969460 -13.122942 87.227260
RightForeArm -1.621195 0.000000 20.910270
RightHand 7.602251 -0.000000 1.114122
RightHandThumb1 -24.326973 -0.000000 -32.862282
LeftUpLeg -7.694685 7.469098 -1.150076
LeftLeg 7.961635 -0.000000 -0.000000
LeftFoot -13.075778 24.835274 -5.940434
LeftToeBase -9.164835 -0.000000 0.000000
RightUpLeg -75.173716 -56.425879 10.398966
RightLeg 83.033372 -0.000000 -0.000000
RightFoot 21.708444 -24.127355 10.370805
RightToeBase 20.696222 -0.000000 -0.000000
244
root 2.334162 32.762258 -2.114617 9.686543 -31.784690 -9.252711
Spine -3.478826 18.913238 1.391819
Head 12.064779 -1.592791 2.927416
LeftShoulder -25.208402 46.410181 6.855121
LeftArm 46.350905 -30.886781 -87.976152
LeftForeArm 5.200639 -0.000000 19.690100
LeftHand 8.644251 0.000000 3.002426
LeftHandThumb1 -26.253704 0.000000 33.147579
RightShoulder 3.807081 5.600016 -19.958956
RightArm 26.106484 -13.227850 87.242043
RightForeArm -1.602409 -0.000000 20.836079
RightHand 7.639032 -0.000000 1.155085
RightHandThumb1 -24.326973 -0.000000 -32.862282
LeftUpLeg -7.613399 7.490858 -1.022489
LeftLeg 7.920406 -0.000000 -0.000000
LeftFoot -13.018176 25.168411 -6.058453
LeftToeBase -9.695257 -0.000000 0.000000
RightUpLeg -76.127950 -56.752536 10.842719
RightLeg 83.438728 -0.000000 -0.000000
RightFoot 21.724826 -24.652256 10.422860
RightToeBase 21.172079 -0.000000 -0.000000
